<svg width="41" height="41" viewBox="0 0 41 41" fill="none" xmlns="http://www.w3.org/2000/svg">
<path d="M5.125 9.39583C5.125 24.0199 16.9801 35.875 31.6042 35.875C32.2639 35.875 32.918 35.8509 33.5658 35.8034C34.3091 35.7489 34.6807 35.7218 35.0191 35.527C35.2993 35.3657 35.5649 35.0798 35.7054 34.7885C35.875 34.4369 35.875 34.0268 35.875 33.2066V28.3937C35.875 27.7039 35.875 27.359 35.7614 27.0634C35.6613 26.8022 35.4983 26.5697 35.2872 26.3862C35.0482 26.1785 34.7239 26.0606 34.0758 25.8249L28.5975 23.8328C27.8433 23.5586 27.4661 23.4214 27.1083 23.4447C26.7928 23.4652 26.4892 23.573 26.2313 23.7557C25.9388 23.963 25.7325 24.307 25.3196 24.9953L23.9167 27.3333C19.3898 25.2832 15.7199 21.6085 13.6667 17.0833L16.0047 15.6805C16.6929 15.2676 17.037 15.0611 17.2443 14.7686C17.4271 14.5107 17.5348 14.2071 17.5553 13.8917C17.5786 13.5339 17.4414 13.1568 17.1672 12.4026L15.1751 6.92423C14.9394 6.27601 14.8215 5.95188 14.6138 5.71284C14.4303 5.50167 14.1978 5.3388 13.9366 5.23852C13.641 5.125 13.2961 5.125 12.6063 5.125H7.79343C6.97321 5.125 6.56309 5.125 6.21147 5.29455C5.92023 5.43499 5.63432 5.70073 5.47299 5.98093C5.2782 6.31924 5.25099 6.69089 5.19656 7.43421C5.14914 8.08189 5.125 8.73604 5.125 9.39583Z" stroke="#FFC076" stroke-width="2" stroke-linecap="round" stroke-linejoin="round"/>
</svg>
