<svg width="117" height="47" viewBox="0 0 117 47" fill="none" xmlns="http://www.w3.org/2000/svg">
<path d="M65.779 0.45977C57.669 1.96861 49.9362 8.3812 47.0128 16.0197C44.6552 22.2437 45.5983 31.4853 49.1818 36.4834C53.614 42.896 58.612 45.8194 66.1562 46.2909C69.6454 46.5738 74.3606 46.2909 76.5295 45.7251C86.1484 43.0846 93.7869 33.0885 93.7869 23.0924C93.7869 8.19259 80.6789 -2.36931 65.779 0.45977ZM75.7751 4.13757C80.4903 6.49514 86.9028 13.8507 88.1288 18.1887C93.3154 36.7663 77.8498 50.9117 62.1012 41.8586C43.8065 31.4853 47.9558 2.44012 67.6651 2.25152C70.3999 2.25152 73.6062 3.00594 75.7751 4.13757Z" fill="white"/>
<path d="M101.803 1.68538C98.6906 3.00562 96.616 6.58912 96.616 10.3612C96.616 14.2276 99.0678 18.377 105.48 25.4497C108.687 29.0332 111.893 32.8996 112.459 34.0312C114.251 37.3318 113.779 40.821 111.233 43.2729C106.989 47.6108 101.52 45.6304 98.502 38.652L96.7103 34.7856V39.2178C96.616 43.2729 96.8989 43.8387 99.445 45.1589C105.009 48.0823 112.082 46.5735 114.816 41.8583C118.4 35.9173 116.325 29.599 108.027 20.6402C99.1621 11.1157 97.4647 7.15494 101.142 3.85434C105.103 0.365143 110.196 1.87399 112.647 7.24924L114.533 11.2099V7.15494C114.533 3.38283 114.251 3.00562 111.233 1.68538C107.272 0.0822372 105.48 0.0822372 101.803 1.68538Z" fill="white"/>
<path d="M1.65316 2.34551C3.0677 3.19423 3.25631 5.26889 3.25631 23.5636C3.25631 43.6501 3.25631 43.8387 1.18165 44.6874C-0.421495 45.2532 0.710137 45.5361 5.61388 45.5361C10.5176 45.5361 11.6492 45.2532 10.1404 44.6874C8.06575 43.8387 7.97144 43.2729 7.97144 33.8426V23.9408H10.6119C12.6866 23.9408 13.6296 24.6009 14.8555 26.9585L16.3644 30.0705V23.0921C16.4587 16.0194 16.0815 15.5479 14.1954 19.4143C13.5353 20.7345 12.1208 21.6776 10.5176 21.8662L7.97144 22.1491V12.2473C7.97144 2.34551 7.97144 2.25121 10.2347 2.25121C14.1011 2.25121 15.7043 3.38284 17.496 7.34355L19.2878 11.21V6.21192V1.30818H9.66889C2.59619 1.40248 0.427229 1.59109 1.65316 2.34551Z" fill="white"/>
<path d="M24.9459 1.96816C25.7003 2.25107 26.6434 3.00549 27.0206 3.57131C27.8693 4.79724 28.0579 41.1038 27.2092 43.1784C26.9263 44.0272 25.8889 44.7816 25.0402 44.8759C24.1915 44.8759 26.2661 45.2531 29.661 45.6303C33.0559 46.0075 37.7711 46.1018 40.1286 45.8189L44.5609 45.3474L45.0324 41.0095C45.6925 35.5399 45.221 35.0684 43.2406 39.312C41.5432 42.8012 38.2426 44.6873 33.7161 44.6873H31.5471L31.7357 23.7521L32.0186 2.81689L34.3762 2.15677C35.885 1.77956 34.2819 1.49665 30.1325 1.49665C26.549 1.49665 24.1915 1.68525 24.9459 1.96816Z" fill="white"/>
</svg>
