<svg width="169" height="35" viewBox="0 0 169 35" fill="none" xmlns="http://www.w3.org/2000/svg">
<path d="M0.766968 16.6669V33.3336H4.1003C7.16697 33.3336 7.43363 32.8002 7.43363 27.3336V21.3336H13.3003C17.167 21.3336 20.2336 20.4002 22.6336 18.5336L26.1003 15.8669L25.3003 19.7336C23.4336 29.0669 33.0336 36.5336 42.767 33.3336C45.3003 32.5336 48.367 30.5336 49.4336 28.9336C52.2336 24.9336 51.967 17.0669 48.767 12.9336C44.2336 7.20024 32.2336 7.0669 27.8336 12.9336C26.2336 14.9336 26.1003 14.8002 26.1003 11.7336C26.1003 3.33357 21.167 0.000236511 8.76697 0.000236511H0.766968V16.6669ZM15.0336 6.13357C22.367 8.13357 19.167 16.0002 11.167 16.0002C7.83363 16.0002 7.43363 15.6002 7.43363 11.6002C7.43363 5.33357 8.63363 4.40024 15.0336 6.13357ZM42.6336 15.4669C47.0336 19.8669 43.967 29.3336 38.2336 29.3336C34.6336 29.3336 32.767 26.5336 32.767 21.3336C32.767 13.8669 37.967 10.8002 42.6336 15.4669Z" fill="white"/>
<path d="M54.1003 16.6668V33.3335H57.4336H60.7669V16.6668V0.000160217H57.4336H54.1003V16.6668Z" fill="white"/>
<path d="M64.767 2.66683C64.767 4.66683 65.7003 5.3335 68.1003 5.3335C70.5003 5.3335 71.4336 4.66683 71.4336 2.66683C71.4336 0.666829 70.5003 0.000162601 68.1003 0.000162601C65.7003 0.000162601 64.767 0.666829 64.767 2.66683Z" fill="white"/>
<path d="M79.167 1.46683C77.8336 2.1335 76.767 4.26683 76.767 5.86683C76.767 7.60016 75.7003 9.46683 74.5003 10.0002C72.2336 10.8002 72.2336 10.9335 74.5003 12.5335C76.2336 14.0002 76.767 16.2668 76.767 23.8668C76.767 33.0668 76.9003 33.3335 80.1003 33.3335C83.3003 33.3335 83.4336 33.0668 83.4336 23.3335C83.4336 14.2668 83.7003 13.3335 86.1003 13.3335C87.567 13.3335 88.767 12.4002 88.767 11.3335C88.767 10.2668 87.567 9.33349 86.1003 9.33349C84.6336 9.33349 83.4336 8.53349 83.4336 7.46683C83.4336 6.53349 84.6336 5.33349 86.1003 4.93349C87.567 4.53349 88.767 3.33349 88.767 2.1335C88.767 -0.266506 82.9003 -0.799839 79.167 1.46683Z" fill="white"/>
<path d="M94.5003 10.0001C89.567 12.1334 87.4337 15.6001 87.4337 21.6001C87.4337 30.6668 96.2337 36.4001 105.434 33.3334C116.367 29.7334 116.767 13.2001 105.967 9.46676C100.634 7.6001 99.7003 7.73343 94.5003 10.0001ZM106.1 17.6001C107.834 20.9334 107.834 21.7334 106.1 24.9334C102.234 31.8668 94.1003 29.3334 94.1003 21.3334C94.1003 13.3334 102.234 10.8001 106.1 17.6001Z" fill="white"/>
<path d="M142.9 8.93349C142.367 9.46683 139.967 9.7335 137.434 9.60016L132.767 9.20016V21.3335C132.767 33.2002 132.9 33.4668 135.834 33.0668C138.5 32.6668 138.767 31.8668 139.167 23.7335C139.567 14.6668 141.034 12.5335 145.434 14.1335C146.9 14.8002 147.434 17.2002 147.434 24.1335C147.434 33.0668 147.567 33.3335 150.767 33.3335C153.967 33.3335 154.1 33.0668 154.1 24.8002C154.1 15.8668 156.1 12.2668 160.1 13.8668C161.567 14.4002 162.1 16.8002 162.1 24.0002C162.1 33.0668 162.234 33.3335 165.434 33.3335C168.9 33.3335 168.9 33.3335 168.5 22.4002C168.1 11.6002 167.967 11.3335 164.1 9.46683C160.767 7.86683 159.834 7.86683 156.767 9.60016C153.7 11.3335 152.9 11.3335 150.767 9.86683C148.1 7.86683 144.5 7.46683 142.9 8.93349Z" fill="white"/>
<path d="M64.767 21.3335C64.767 33.2002 64.767 33.3335 68.1003 33.3335C71.4336 33.3335 71.4336 33.2002 71.4336 21.3335C71.4336 9.46683 71.4336 9.33349 68.1003 9.33349C64.767 9.33349 64.767 9.46683 64.767 21.3335Z" fill="white"/>
<path d="M115.434 21.1999C115.434 29.4666 115.967 33.1999 117.167 33.5999C120.767 35.0666 122.1 33.0666 122.1 26.1332C122.1 19.0666 124.634 14.6666 128.5 14.6666C129.434 14.6666 130.1 13.4666 130.1 11.9999C130.1 8.93322 126.234 8.39989 123.7 10.9332C122.5 12.1332 122.1 12.1332 122.1 10.9332C122.1 9.99989 120.634 9.33322 118.767 9.33322C115.434 9.33322 115.434 9.46655 115.434 21.1999Z" fill="white"/>
</svg>
