<svg width="167" height="40" viewBox="0 0 167 40" fill="none" xmlns="http://www.w3.org/2000/svg">
<path d="M3.26645 17.6169C3.66645 33.2169 3.39978 35.4836 1.39978 36.9503C-0.733552 38.4169 -0.333552 38.6836 4.33312 38.6836C8.46645 38.5503 9.13311 38.2836 7.26645 37.2169C5.13311 36.0169 4.86645 33.7503 4.86645 20.2836L4.99978 4.68359L11.2664 21.0836C14.8664 30.1503 18.1998 37.3503 18.9998 37.2169C19.6665 37.0836 22.1998 31.7503 24.5998 25.4836C32.8665 3.88359 32.7331 3.88359 32.7331 21.6169C32.8665 35.3503 32.5998 37.2169 30.5998 37.7503C29.2665 38.1503 31.7998 38.4169 36.1998 38.5503C40.8664 38.5503 43.5331 38.1503 42.4664 37.4836C41.1331 36.6836 40.8664 32.1503 41.1331 18.2836L41.5331 0.0169258H37.2664C33.1331 0.0169258 32.9998 0.283592 27.7998 13.6169C23.6665 24.2836 22.1998 26.6836 21.5331 24.6836C20.8664 23.2169 18.8664 18.1503 16.8664 13.3503C14.8664 8.55026 12.8664 3.61692 12.4664 2.28359C11.9331 0.816925 10.1998 0.0169258 7.26645 0.0169258H2.86645L3.26645 17.6169Z" fill="white"/>
<path d="M51.7998 2.95023C52.3331 6.95023 57.5331 7.35023 57.5331 3.35023C57.5331 1.61689 56.4665 0.550227 54.4665 0.28356C51.7998 -0.11644 51.3998 0.28356 51.7998 2.95023Z" fill="white"/>
<path d="M158.6 2.14998C158.2 3.21664 158.466 4.81664 159.266 5.61664C161.4 7.74998 164.866 5.88331 164.866 2.68331C164.866 -0.516691 159.8 -1.05002 158.6 2.14998Z" fill="white"/>
<path d="M126.466 4.41652C126.333 5.74986 124.6 8.54986 122.6 10.5499C119 14.0165 118.866 14.6832 119.533 24.8165C119.933 30.5499 120.733 36.1499 121.266 36.9499C122.466 38.9499 131 39.3499 132.066 37.4832C132.466 36.8165 131.8 36.4165 130.466 36.5499C128.6 36.6832 128.2 35.2165 127.8 26.8165C127.533 19.7499 127.933 16.5499 129.133 15.8832C130.333 15.0832 130.466 14.6832 129.266 14.6832C128.333 14.6832 127.533 12.0165 127.133 8.28319C126.866 4.81652 126.6 3.08319 126.466 4.41652Z" fill="white"/>
<path d="M145.133 4.28348C145 5.61681 142.733 8.68348 140.2 11.3501C137.533 13.8835 136.066 16.0168 136.866 16.0168C137.666 16.0168 138.2 19.8835 138.2 25.7502C138.2 31.4835 138.866 36.1502 139.8 37.0835C141.666 38.9502 149.666 39.2168 150.733 37.4835C151.266 36.8168 150.333 36.5502 148.866 36.9502C146.466 37.6168 146.2 36.8168 145.8 19.8835C145.666 10.0168 145.266 3.08348 145.133 4.28348Z" fill="white"/>
<path d="M77.1331 15.4832C75.5331 16.5498 74.1998 16.8165 74.1998 16.1498C74.1998 15.3498 71.6665 14.6832 68.5998 14.6832C64.0665 14.8165 63.3998 15.0832 65.2665 16.1498C67.1331 17.2165 67.5331 19.3498 67.5331 27.3498C67.5331 35.6165 67.1331 37.2165 65.2665 37.7498C63.9331 38.1498 66.1998 38.4165 70.1998 38.4165C74.1998 38.4165 76.7331 38.1498 75.9331 37.7498C74.8665 37.3498 74.1998 34.2832 74.1998 29.3498C74.1998 20.6832 77.3998 14.9498 81.2665 16.4165C83.1331 17.0832 83.5331 19.2165 83.5331 27.2165C83.5331 33.8832 82.9998 37.3498 81.9331 37.7498C80.9998 38.1498 83.2665 38.4165 86.8665 38.4165C90.5998 38.4165 92.7331 38.1498 91.9331 37.7498C90.7331 37.3498 90.1998 33.8832 90.1998 27.3498C90.1998 18.6832 89.7998 17.2165 87.2665 15.4832C85.6665 14.2832 83.3998 13.3498 82.1998 13.3498C80.9998 13.3498 78.7331 14.2832 77.1331 15.4832Z" fill="white"/>
<path d="M100.2 14.55C89.1331 19.0834 90.1998 36.4167 101.8 39.35C109.666 41.2167 118.2 34.6834 118.2 26.6834C118.2 21.75 114.466 16.4167 110.066 14.8167C105.133 13.0834 103.933 13.0834 100.2 14.55ZM108.6 25.8834C109 37.2167 108.066 39.4834 103.666 38.0167C101.133 37.2167 100.866 36.15 100.866 26.6834C100.866 16.15 101.666 14.55 106.2 15.0834C107.8 15.35 108.333 17.75 108.6 25.8834Z" fill="white"/>
<path d="M49.2664 15.6165C51.1331 16.1498 51.5331 17.8832 51.5331 26.6832C51.5331 33.7498 50.9998 37.3498 49.9331 37.7498C48.9998 38.1498 51.2664 38.4165 54.8664 38.4165C58.5998 38.4165 60.7331 38.1498 59.9331 37.7498C58.7331 37.3498 58.1998 33.6165 58.1998 25.8832V14.6832L52.5998 14.8165C49.3998 14.9498 47.9331 15.2165 49.2664 15.6165Z" fill="white"/>
<path d="M156.6 15.6165C157.666 16.0165 158.2 19.6165 158.2 26.6832C158.2 33.7498 157.666 37.3498 156.6 37.7498C155.666 38.1498 157.933 38.4165 161.533 38.4165C165.266 38.4165 167.4 38.1498 166.6 37.7498C165.4 37.3498 164.866 33.6165 164.866 25.8832V14.6832L159.933 14.8165C157.133 14.8165 155.666 15.2165 156.6 15.6165Z" fill="white"/>
</svg>
