<svg width="173" height="43" viewBox="0 0 173 43" fill="none" xmlns="http://www.w3.org/2000/svg">
<path d="M0.76758 20.9333L1.16758 42H21.8342H42.5009L42.9009 20.9333L43.3009 -3.8147e-06H27.8342H12.5009V3.46666C12.5009 6.26667 12.9009 6.8 14.9009 6C23.1676 2.26667 31.9676 4.93333 36.5009 12.4C42.2342 21.7333 38.3676 32.6667 28.1009 36.6667C20.6342 39.4667 14.9009 38 9.03425 31.8667C5.30091 28 5.16758 27.2 4.76758 13.8667C4.36758 2.93333 3.83425 -3.8147e-06 2.36758 -3.8147e-06C0.76758 -3.8147e-06 0.500913 3.46666 0.76758 20.9333Z" fill="white"/>
<path d="M53.8342 21.3332V42.6665H65.5676C79.0342 42.6665 85.4342 40.2665 88.3676 33.9998C90.1009 30.5332 90.3676 30.3998 91.1676 32.6665C92.9009 37.3332 98.7676 41.4665 104.234 42.2665C115.701 43.8665 124.368 34.9332 122.634 23.1998C122.101 18.5332 122.234 17.3332 123.834 17.3332C125.434 17.3332 125.834 19.5998 125.834 29.3332V41.3332H130.501H135.034L135.434 29.5998C135.834 18.6665 135.968 17.9998 138.901 17.5998C141.034 17.1998 141.834 16.2665 141.834 13.8665C141.834 11.3332 141.168 10.6665 138.368 10.6665C134.234 10.6665 134.634 7.4665 139.034 6.93317C143.434 6.2665 142.368 0.799835 137.701 0.266502C131.834 -0.400166 127.168 2.2665 126.368 6.6665C125.834 8.79984 124.634 10.6665 123.701 10.6665C122.634 10.6665 121.834 11.8665 121.834 13.3332C121.834 15.7332 121.568 15.7332 117.034 12.6665C111.434 8.79984 103.701 8.2665 97.9676 11.3332C94.1009 13.1998 89.8342 20.3998 89.8342 24.9332C89.7009 26.7998 89.3009 26.5332 87.7009 23.5998C86.6342 21.5998 85.0342 19.9998 84.2342 19.9998C83.4342 19.9998 83.7009 18.9332 84.9009 17.5998C87.1676 15.0665 87.8342 9.99984 86.3676 5.99984C84.7676 1.8665 78.5009 -0.000164032 65.8342 -0.000164032H53.8342V21.3332ZM77.0342 10.1332C78.3676 13.7332 75.3009 15.9998 69.0342 15.9998C63.4342 15.9998 63.1676 15.8665 63.1676 11.9998C63.1676 8.13317 63.3009 7.99984 69.7009 7.99984C74.5009 7.99984 76.5009 8.53317 77.0342 10.1332ZM111.168 18.6665C115.968 23.4665 114.234 33.0665 108.101 35.1998C104.634 36.3998 99.1676 30.3998 99.1676 25.3332C99.1676 21.0665 103.168 15.9998 106.501 15.9998C107.568 15.9998 109.701 17.1998 111.168 18.6665ZM78.3676 27.0665C80.5009 30.6665 74.9009 34.9332 68.6342 34.3998C64.1009 33.9998 63.8342 33.7332 63.4342 28.9332L63.0342 23.8665L69.9676 24.2665C74.9009 24.5332 77.3009 25.3332 78.3676 27.0665Z" fill="white"/>
<path d="M150.101 2.13301C148.501 3.19967 147.168 5.59967 147.168 7.46634C147.168 9.46634 146.368 10.6663 145.168 10.6663C143.968 10.6663 143.168 11.8663 143.168 13.8663C143.168 15.5997 144.101 17.333 145.168 17.8663C146.768 18.3997 147.168 21.0663 147.168 29.9997V41.333H151.834H156.501V29.333C156.501 18.2663 156.634 17.333 159.168 17.333C161.168 17.333 161.834 16.3997 161.834 13.9997C161.834 11.5997 161.168 10.6663 159.168 10.6663C157.701 10.6663 156.501 9.99967 156.501 9.19967C156.501 8.39967 157.701 7.46634 159.168 7.06634C160.901 6.66634 161.834 5.19967 161.834 3.19967C161.834 0.533005 161.168 -0.000328064 157.434 -0.000328064C155.034 -0.000328064 151.701 0.933006 150.101 2.13301Z" fill="white"/>
<path d="M163.168 4C163.168 7.73333 163.568 8 167.834 8C172.101 8 172.501 7.73333 172.501 4C172.501 0.266666 172.101 0 167.834 0C163.568 0 163.168 0.266666 163.168 4Z" fill="white"/>
<path d="M163.168 26.6665V42.6665H167.834H172.501V26.6665V10.6665H167.834H163.168V26.6665Z" fill="white"/>
<path d="M15.1675 14.9333C11.8342 18.5333 11.7009 22.8 14.9009 26.8C20.1009 33.0666 31.1675 28.9333 31.1675 20.5333C31.1675 12.9333 20.5009 9.19997 15.1675 14.9333Z" fill="white"/>
</svg>
