<svg width="108" height="74" viewBox="0 0 108 74" fill="none" xmlns="http://www.w3.org/2000/svg">
<path d="M14.2293 9.87373C3.12571 20.4172 2.05648 21.5137 2.87897 22.3572C3.12571 22.6103 5.51092 20.8389 8.30737 18.3929C13.5713 13.6694 14.3938 13.5007 11.2683 17.8024C4.77068 26.6589 -1.39796 42.0103 1.56299 42.0103C1.97423 42.0103 4.35944 38.805 6.90915 34.925C11.2683 28.2616 13.489 25.8998 19.4109 22.1042C22.2074 20.2485 22.2896 20.0798 16.0387 29.4424C11.9263 35.6842 9.95234 40.6607 11.1861 41.8416C11.9263 42.6007 15.7097 38.1303 23.6878 27.3337C28.2938 21.092 29.692 18.4772 29.5275 16.7903C29.1163 13.4163 26.2376 13.5007 20.9736 17.0433C18.5062 18.7303 16.5322 19.9955 16.5322 19.8268C16.5322 19.6581 19.1642 15.9468 22.2896 11.5607C28.047 3.71634 29.1163 0.595467 26.3198 0.00503159C25.5796 -0.163666 20.3979 4.13808 14.2293 9.87373Z" fill="white"/>
<path d="M76.7381 14.5128C76.1624 15.778 74.9287 16.7058 73.1192 17.0432C71.5565 17.2963 69.5825 18.1398 68.6778 18.7302C67.1973 19.9111 67.1973 19.9954 69.3358 20.8389L71.6387 21.6824L69.3358 25.6467C67.5263 28.7676 66.1281 29.9485 62.0157 31.8884C54.6133 35.3467 55.1068 37.118 62.7559 34.7563C63.9896 34.3345 63.9074 34.925 62.1802 38.8893C59.9594 44.1189 57.492 52.9754 58.3145 52.9754C58.6435 52.9754 61.1109 48.6737 63.8251 43.4441L68.8423 33.9971L75.7512 30.5389C81.8376 27.5867 82.8245 27.2493 83.2358 28.4302C84.3873 31.4667 86.1967 32.1415 91.8719 31.4667L97.218 30.8763L94.7506 36.0215C91.7896 41.9258 88.0062 46.6493 84.7163 48.4206C81.3441 50.1919 76.9026 49.9389 74.8464 47.8302C73.2837 46.2276 73.1192 45.3841 73.6127 41.0824C74.1062 35.8528 73.037 34.3345 71.6387 38.2989C69.5825 43.7815 71.4742 50.2763 75.7512 52.5537C83.4003 56.6024 95.5731 49.1798 100.672 37.4554C101.659 35.0937 103.633 30.7076 105.114 27.6711C106.594 24.6345 107.417 21.8511 107.088 21.5137C106.677 21.0919 103.058 21.7667 98.9452 22.9476C94.8328 24.1284 91.0494 25.1406 90.4737 25.1406C88.8287 25.1406 91.3784 22.6102 96.1488 19.4893C98.4518 17.9711 100.426 16.2841 100.426 15.8624C100.426 14.1754 96.1488 15.1032 91.7074 17.718C87.6772 19.9954 86.937 20.1641 86.3612 18.9832C85.95 18.3084 84.3873 17.2119 82.8245 16.7058C81.2618 16.1998 79.8636 15.1032 79.6168 14.1754C79.0411 11.898 77.8896 12.0667 76.7381 14.5128ZM80.2748 21.6824C80.6861 22.4415 74.1062 27.0806 73.4482 26.4058C72.8725 25.8154 75.9157 21.8511 77.2316 21.5137C79.5346 20.8389 79.7813 20.9232 80.2748 21.6824Z" fill="white"/>
<path d="M38.8216 17.2962C37.1766 19.0675 33.5577 23.1162 30.679 26.3214C27.8003 29.4422 24.5103 32.3101 23.2766 32.7318C21.4671 33.2379 21.0559 33.744 21.2204 35.684C21.3026 37.0335 21.0559 38.6362 20.5624 39.1422C20.0689 39.7327 19.9044 40.6605 20.2334 41.1666C20.6446 41.8414 21.7961 41.2509 23.5233 39.4796C25.5796 37.4553 27.2245 36.6118 30.021 36.3588L33.8867 35.8527L33.3109 39.4796C32.5707 43.8657 33.8044 43.5283 36.2719 38.5518C37.3411 36.4431 38.4926 35.2622 39.4796 35.2622C40.3843 35.2622 41.618 35.0092 42.276 34.7562C43.1807 34.4188 42.7695 36.1901 40.7955 40.9135C39.2328 44.5405 37.7523 48.5892 37.5056 50.0231C36.8476 53.144 37.1766 52.7222 44.0855 41.5883L49.0204 33.5753L55.3535 31.3822C62.8381 28.8518 67.0328 26.1527 67.3618 23.7066C67.6908 21.1762 64.6476 19.2362 60.3707 19.2362C56.7517 19.2362 56.0938 18.6457 57.7387 16.9588C58.8902 15.7779 57.9032 14.0066 56.4228 14.344C55.847 14.5127 54.1198 16.284 52.5571 18.3927C50.7476 20.9231 49.0204 22.2727 47.6222 22.4414C45.4837 22.6944 45.4837 22.6101 46.3062 19.7422C48.1979 13.4162 43.921 11.9822 38.8216 17.2962ZM37.4233 27.1649C36.0251 30.0327 33.4754 31.804 32.3239 30.7075C32.0772 30.3701 33.3109 28.6831 35.0381 26.8275C36.7654 24.9718 38.3281 23.6222 38.4926 23.7909C38.6571 23.9596 38.1636 25.4779 37.4233 27.1649ZM47.7867 25.8153C47.7867 27.0805 45.7304 29.1892 43.921 29.7796C41.7003 30.4544 41.5358 29.6109 43.3452 26.9962C44.4967 25.2248 47.7867 24.3814 47.7867 25.8153ZM56.0115 25.7309C55.3535 25.984 54.1198 26.5744 53.3796 26.9962C52.3103 27.5022 51.8991 27.4179 51.8991 26.4057C51.8991 25.5622 52.7216 25.1405 54.6133 25.2248C56.0115 25.2248 56.6695 25.4779 56.0115 25.7309Z" fill="white"/>
<path d="M4.27719 67.6519C3.45471 68.5797 3.70145 69.0858 5.18193 70.1823L6.99139 71.5319H5.18193C4.1127 71.5319 3.53696 71.8693 3.7837 72.3754C4.60619 73.7249 7.48489 73.3876 8.06063 71.9536C8.30737 71.1945 7.89613 70.098 6.99139 69.4232C5.51092 68.2423 5.51092 68.2423 6.90915 68.158C7.73163 68.158 8.14287 67.7362 7.89613 67.3145C7.15589 66.1336 5.34642 66.3023 4.27719 67.6519Z" fill="white"/>
<path d="M22.2896 67.3144C22.2896 67.7361 22.7009 68.1579 23.1121 68.1579C23.6056 68.1579 23.9346 69.2544 23.9346 70.6883C23.9346 72.0379 24.3458 73.2188 24.7571 73.2188C25.2506 73.2188 25.5796 72.0379 25.5796 70.6883C25.5796 69.2544 25.9908 68.1579 26.402 68.1579C26.8955 68.1579 27.2245 67.7361 27.2245 67.3144C27.2245 66.8083 26.1553 66.4709 24.7571 66.4709C23.4411 66.4709 22.2896 66.8083 22.2896 67.3144Z" fill="white"/>
<path d="M41.2068 68.9171C41.2068 71.9536 43.263 73.8936 45.1547 72.6284C46.7174 71.7006 47.5399 66.471 46.2239 66.471C45.7304 66.471 45.3192 67.5675 45.3192 69.0014C45.3192 70.6884 44.908 71.5319 44.0855 71.5319C43.263 71.5319 42.8517 70.6884 42.8517 69.0014C42.8517 67.5675 42.5228 66.471 42.0293 66.471C41.618 66.471 41.2068 67.5675 41.2068 68.9171Z" fill="white"/>
<path d="M61.5222 66.9772C61.1932 67.3146 60.9464 68.9172 60.9464 70.4354C60.9464 73.0502 61.1109 73.3033 63.0849 73.0502C65.9636 72.7128 67.4441 70.4354 66.2103 68.3267C65.2233 66.8085 62.5091 65.965 61.5222 66.9772ZM65.0589 69.845C65.0589 70.7728 64.4831 71.532 63.8251 71.532C63.1671 71.532 62.5914 70.7728 62.5914 69.845C62.5914 68.9172 63.1671 68.158 63.8251 68.158C64.4831 68.158 65.0589 68.9172 65.0589 69.845Z" fill="white"/>
<path d="M81.3441 67.4834C81.1796 68.0738 81.2618 69.6765 81.5908 71.1104C82.0843 73.4721 82.1665 73.3034 82.2488 70.0138C82.331 66.4712 82.002 65.5434 81.3441 67.4834Z" fill="white"/>
<path d="M98.1228 67.4831C96.56 69.0857 96.9713 72.2066 98.7808 72.797C100.755 73.4718 102.893 71.9535 102.893 69.9292C102.893 68.3266 101.33 66.4709 100.014 66.4709C99.521 66.4709 98.6985 66.8926 98.1228 67.4831ZM101.248 69.8448C101.248 71.6161 99.2742 72.2066 98.3695 70.6883C97.7115 69.5074 98.6163 68.1579 100.097 68.1579C100.755 68.1579 101.248 68.917 101.248 69.8448Z" fill="white"/>
</svg>
