<svg width="173" height="60" viewBox="0 0 173 60" fill="none" xmlns="http://www.w3.org/2000/svg">
<path d="M0.67749 14V28L11.0775 27.8667C28.2775 27.7333 34.0108 24.2667 34.0108 13.3333C34.0108 3.6 27.7442 -1.90735e-06 10.4108 -1.90735e-06H0.67749V14ZM21.2108 5.73333C22.9442 6.93333 23.6108 9.33333 23.6108 14C23.6108 21.3333 21.3442 24 15.0775 24H11.3442V14V4H15.0775C17.2108 4 19.8775 4.8 21.2108 5.73333Z" fill="white"/>
<path d="M87.7442 2.26666C85.8775 3.46667 84.6775 3.73333 84.6775 2.8C84.6775 2 82.9442 1.33333 80.6775 1.33333H76.6775V14.6667V28H81.3442H86.0108V18.9333C86.0108 8.93333 87.2108 6.66667 92.9442 6.66667C96.0108 6.66667 96.6775 6.13333 96.6775 3.33333C96.6775 0.799999 96.0108 -1.90735e-06 93.7442 0.133331C92.0108 0.133331 89.3442 1.06667 87.7442 2.26666Z" fill="white"/>
<path d="M104.678 1.73333C96.0108 6.13333 95.7442 22.6667 104.278 26.5333C106.011 27.3333 108.678 28 110.011 28C113.078 28 113.611 24.6667 110.678 23.0667C109.611 22.4 108.544 20.4 108.411 18.6667C108.011 15.4667 108.278 15.3333 117.744 14.9333C124.544 14.6667 127.344 14 127.344 12.8C127.344 8.53333 124.278 2.93333 121.211 1.46667C116.811 -0.533335 108.811 -0.400002 104.678 1.73333ZM115.878 6.13333C119.211 9.46667 118.411 10.6667 112.678 10.6667C109.744 10.6667 107.344 10.1333 107.344 9.46667C107.344 7.86666 111.211 4 112.678 4C113.344 4 114.811 4.93333 115.878 6.13333Z" fill="white"/>
<path d="M39.3442 14.6667V28H44.0108H48.6775V14.6667V1.33333H44.0108H39.3442V14.6667Z" fill="white"/>
<path d="M52.6775 3.33333C52.6775 4.4 53.8775 5.33333 55.3442 5.33333C57.7442 5.33333 58.0108 6.26667 58.0108 15.0667C58.0108 20.8 58.6775 25.4667 59.6108 26.4C60.5442 27.3333 63.7442 28 66.9442 28C71.7442 28 72.6775 27.6 72.6775 25.3333C72.6775 23.6 71.7442 22.6667 70.0108 22.6667C67.6108 22.6667 67.3442 21.7333 67.3442 14C67.3442 6.26667 67.6108 5.33333 70.0108 5.33333C71.4775 5.33333 72.6775 4.4 72.6775 3.33333C72.6775 1.73333 70.6775 1.33333 62.6775 1.33333C54.6775 1.33333 52.6775 1.73333 52.6775 3.33333Z" fill="white"/>
<path d="M116.677 41.1998C116.677 59.5998 116.811 59.8665 123.611 58.9332L127.344 58.3998V41.1998V23.9998H122.011H116.677V41.1998Z" fill="white"/>
<path d="M48.6775 45.3332V58.6665H53.3442H58.0108V45.3332V31.9998H53.3442H48.6775V45.3332Z" fill="white"/>
<path d="M62.0108 34.6665C62.0108 36.1332 62.9441 37.3332 64.0108 37.3332C65.6108 37.3332 66.0108 39.1999 66.0108 46.5332C66.0108 57.8665 67.8775 59.5999 79.0775 58.9332C82.6775 58.6665 83.0775 54.6665 79.4775 54.6665C76.4108 54.6665 75.8775 52.5332 76.4108 43.8665C76.8108 39.0665 77.4775 37.4665 79.4775 36.9332C80.8108 36.5332 82.0108 35.3332 82.0108 34.1332C82.0108 32.3999 80.2775 31.9999 72.0108 31.9999C62.9441 31.9999 62.0108 32.2665 62.0108 34.6665Z" fill="white"/>
<path d="M98.0108 33.7333C98.0108 34.6666 99.2108 36.1333 100.677 37.0666C104.677 39.5999 102.411 42.3999 95.6108 43.4666C88.0108 44.5333 82.8108 49.3333 84.0108 53.7333C85.4775 58.5333 88.6775 60.2666 94.6775 59.3333C97.6108 58.9333 102.677 58.6666 106.011 58.6666L112.011 58.7999L111.611 47.3333C111.211 37.5999 110.811 35.7333 108.277 33.9999C104.811 31.5999 98.0108 31.3333 98.0108 33.7333ZM103.344 49.3333C103.344 53.0666 97.3442 56.7999 94.6775 54.6666C91.7442 52.2666 92.2775 49.4666 95.7442 47.9999C100.677 45.9999 103.344 46.3999 103.344 49.3333Z" fill="white"/>
<path d="M132.677 45.3332V58.6665H137.344H142.011V45.3332V31.9998H137.344H132.677V45.3332Z" fill="white"/>
<path d="M159.344 34.0001C159.344 34.9334 160.277 36.4001 161.611 37.0667C165.344 39.2001 162.544 42.4001 155.211 43.8667C146.544 45.7334 144.677 47.2001 144.677 52.1334C144.677 57.4667 149.744 60.6667 156.411 59.4667C159.077 58.9334 163.877 58.5334 167.077 58.6667L172.677 58.8001V48.0001C172.677 39.0667 172.277 36.9334 170.011 34.6667C166.811 31.4667 159.344 31.0667 159.344 34.0001ZM163.344 50.0001C163.344 53.4667 159.077 56.6667 155.877 55.4667C153.211 54.4001 153.477 49.7334 156.411 48.1334C160.544 45.6001 163.344 46.4001 163.344 50.0001Z" fill="white"/>
</svg>
