<svg width="171" height="42" viewBox="0 0 171 42" fill="none" xmlns="http://www.w3.org/2000/svg">
<path d="M0 20.8001V41.4668H12.6667H25.3333V36.1335V30.8001H18.6667H12V15.4668V0.133461H6H0V20.8001Z" fill="white"/>
<path d="M28 20.8001V41.4668H42.6667H57.3333V36.8001V32.2668L49.0667 31.8668C41.4667 31.4668 40.6667 31.2001 40.2667 28.4001C39.8667 25.7335 40.4 25.4668 45.8667 25.4668H52V20.1335V14.8001H46C40.9333 14.8001 40 14.4001 40 12.1335C40 9.73346 40.9333 9.4668 48.6667 9.4668H57.3333V4.80013V0.133461H42.6667H28V20.8001Z" fill="white"/>
<path d="M61.3333 20.8001V41.6001L66.8 41.2001L72.2667 40.8001V20.8001V0.800095L66.8 0.400097L61.3333 9.53674e-05V20.8001Z" fill="white"/>
<path d="M86.9333 2.40013C67.6 11.8668 74.5333 41.4668 96 41.4668C99.7333 41.4668 100 41.0668 100 36.8001C100 32.9335 99.4667 32.1335 97.2 32.1335C93.2 32.1335 86.6667 25.0668 86.6667 20.8001C86.6667 16.5335 93.2 9.4668 97.2 9.4668C99.4667 9.4668 100 8.66679 100 4.80013C100 0.400127 99.7333 0.133461 95.7333 0.133461C93.3333 0.133461 89.3333 1.20013 86.9333 2.40013Z" fill="white"/>
<path d="M104 20.8001V41.4668H110H116V33.4668V25.4668H121.333H126.667V33.4668V41.4668H132.667H138.667V20.8001V0.133461H132.667H126.667V7.4668V14.8001H121.333H116V7.4668V0.133461H110H104V20.8001Z" fill="white"/>
<path d="M142.667 4.80013C142.667 9.0668 142.933 9.4668 146.667 9.4668H150.667V25.4668V41.4668H156H161.2L161.6 25.8668L162 10.1335L166 9.4668C169.333 8.93346 170 8.13346 170.4 4.40013L170.8 0.133461H156.8H142.667V4.80013Z" fill="white"/>
</svg>
